<?xml version="1.0" encoding="UTF-8"?>
<svg version="1.1" xmlns="http://www.w3.org/2000/svg" width="510" height="489">
<path d="M0 0 C-0.76452283 6.10768791 -2.06189628 12.05213436 -3.375 18.0625 C-5.11911861 26.14723582 -6.48212199 34.16152469 -7.4375 42.375 C-8.38127065 50.33931232 -10.22957884 57.46662797 -12.93359375 65.00390625 C-15.58563003 72.432314 -16.27015582 78.71893097 -15.51220703 86.57885742 C-14.9963376 92.52073944 -14.85465407 98.40176244 -14.8671875 104.36328125 C-14.86575241 105.91585884 -14.86575241 105.91585884 -14.86428833 107.49980164 C-14.86361325 109.67198752 -14.86542019 111.84417551 -14.86962891 114.01635742 C-14.87497011 117.2941555 -14.86966927 120.57181556 -14.86328125 123.84960938 C-14.86012749 134.94233304 -15.01817159 145.9460435 -16 157 C-15.2174585 156.84595703 -14.43491699 156.69191406 -13.62866211 156.53320312 C-0.6685547 154.02368326 -0.6685547 154.02368326 2.99609375 156.16796875 C9.23622889 160.62193677 13.66321557 165.57457772 16 173 C16.4076487 175.95055098 16.42983248 178.83768056 16.375 181.8125 C16.36484863 182.60785156 16.35469727 183.40320313 16.34423828 184.22265625 C15.98759903 197.75835981 10.25976417 208.14410628 1.1484375 218.0234375 C-2.20030551 221.10428107 -5.86456829 223.15130611 -10 225 C-10.76570313 225.36867188 -11.53140625 225.73734375 -12.3203125 226.1171875 C-15.70841456 227.23338439 -18.62672458 227.22877348 -22.1875 227.1875 C-23.41855469 227.18105469 -24.64960938 227.17460937 -25.91796875 227.16796875 C-29 227 -29 227 -31 226 C-30.96519531 227.26585937 -30.93039062 228.53171875 -30.89453125 229.8359375 C-30.67107467 242.11000632 -31.24607139 254.21878729 -32.3125 266.4375 C-32.3714444 267.14163025 -32.43038879 267.8457605 -32.49111938 268.57122803 C-35.10894755 299.38847171 -35.10894755 299.38847171 -44 307 C-44.88429688 307.680625 -45.76859375 308.36125 -46.6796875 309.0625 C-50.73190433 312.46039287 -53.70982781 315.05956791 -54.51586914 320.44970703 C-54.50694067 321.80283829 -54.46951601 323.1559544 -54.41015625 324.5078125 C-54.38483826 325.65485657 -54.38483826 325.65485657 -54.35900879 326.82507324 C-53.99132335 339.39893958 -52.93315561 351.9587643 -52 364.5 C-51.71200179 368.41310318 -51.42594421 372.32632087 -51.14404297 376.23986816 C-50.96975774 378.65542668 -50.79192386 381.07073284 -50.60986328 383.48571777 C-50.13623386 390.00526961 -49.88372695 396.46333222 -50 403 C-49.02728149 402.47212891 -49.02728149 402.47212891 -48.03491211 401.93359375 C-46.09912266 400.88334871 -44.16297462 399.83376449 -42.2265625 398.78466797 C-40.02298965 397.58899416 -37.82117928 396.39006681 -35.62109375 395.18798828 C-26.17566091 390.04061723 -26.17566091 390.04061723 -21.34765625 387.7421875 C-14.00373563 384.21537995 -9.37804047 380.85702428 -4.9453125 373.9296875 C0.57334569 365.61845528 8.20207036 358.51961281 15.69140625 352.01171875 C17.10599844 350.77903689 18.49607776 349.51656116 19.83984375 348.20703125 C42.53703163 326.50315575 77.98877561 322.49185498 107.85546875 322.77734375 C137.5091353 323.5091353 137.5091353 323.5091353 144 330 C144 363.66 144 397.32 144 432 C-24.3 432 -192.6 432 -366 432 C-366 397.35 -366 362.7 -366 327 C-341.0257498 317.01029992 -305.2122182 322.26644494 -281 332 C-280.05640625 332.309375 -279.1128125 332.61875 -278.140625 332.9375 C-256.90921688 340.44473823 -239.1152147 358.3148092 -226.1484375 376.1953125 C-221.21989897 382.62929552 -216.15106 385.72810136 -209 389.25 C-200.46717202 393.56924998 -192.64705811 398.2540658 -185 404 C-183.85620751 399.23764188 -183.63518202 394.48048278 -183.3515625 389.609375 C-183.23277697 387.69824035 -183.1139606 385.78710762 -182.99511719 383.87597656 C-182.80800357 380.79697177 -182.62309963 377.71785769 -182.44104004 374.6385498 C-181.81146589 364.04725488 -181.15840622 353.49734496 -179.8203125 342.96875 C-179.6396719 341.4664881 -179.459166 339.96420999 -179.27880859 338.46191406 C-178.94721355 335.72369674 -178.55373493 333.00450307 -178.12353516 330.28027344 C-177.24359812 323.34544941 -177.24359812 323.34544941 -179.84863281 317.06738281 C-182.18238399 314.40107834 -182.18238399 314.40107834 -184.6875 312.15039062 C-196.01056584 301.62108701 -199.5876833 283.20521326 -201.125 268.375 C-201.20991699 267.55612305 -201.29483398 266.73724609 -201.38232422 265.89355469 C-202.57280132 252.65698237 -202.16664684 239.275344 -202 226 C-202.99 226.33 -203.98 226.66 -205 227 C-216.4569236 228.06373263 -225.04228808 225.35788686 -233.8984375 218.05078125 C-242.7814102 209.38245287 -249.16074494 197.24871393 -249.32958984 184.74560547 C-249.3239502 184.02518066 -249.31831055 183.30475586 -249.3125 182.5625 C-249.30686035 181.8111377 -249.3012207 181.05977539 -249.29541016 180.28564453 C-249.11589983 172.12236785 -247.11637295 166.77866943 -241.6953125 160.54296875 C-236.55522211 155.86477589 -232.49424256 155.57935693 -225.8125 155.75 C-224.58370117 155.75773437 -224.58370117 155.75773437 -223.33007812 155.765625 C-217.31020182 155.84489909 -217.31020182 155.84489909 -215 157 C-215.1429248 156.4539209 -215.28584961 155.9078418 -215.43310547 155.34521484 C-216.87600825 148.86916474 -217.15041569 142.6396205 -217.1328125 136.0390625 C-217.13149323 135.12873764 -217.13017395 134.21841278 -217.1288147 133.28050232 C-217.12739471 132.34706497 -217.12597473 131.41362762 -217.12451172 130.4519043 C-217.10097763 113.31528686 -217.28683479 98.61454127 -225.08886719 83.01416016 C-230.59701101 70.83779721 -230.44872279 56.37749485 -226 44 C-221.99490136 33.77486181 -215.7747326 26.55203301 -205.6640625 22.03125 C-197.26059035 18.77829304 -189.82485334 17.8453518 -180.875 18 C-170.34979857 18.16639105 -163.61961169 16.39164054 -154.25 11.5 C-129.51771579 -1.26205744 -96.36125462 2.57642356 -69.44287109 4.22680664 C-65.97915601 4.43877559 -62.5150364 4.64277094 -59.05078125 4.84570312 C-56.82549303 4.9787023 -54.60023155 5.11214976 -52.375 5.24609375 C-51.35092041 5.3065538 -50.32684082 5.36701385 -49.27172852 5.42930603 C-43.80909653 5.76754062 -38.42522554 6.28263035 -33 7 C-20.36290736 7.69171454 -10.1168206 0 0 0 Z " fill="#D2957E" transform="translate(366,57)"/>
<path d="M0 0 C0.33 0 0.66 0 1 0 C1.01030746 0.59975647 1.02061493 1.19951294 1.03123474 1.81744385 C1.14020447 8.11276184 1.25471732 14.40796239 1.37231445 20.703125 C1.41537617 23.04619874 1.45706871 25.38929808 1.49731445 27.73242188 C1.55572114 31.11856779 1.61920494 34.50458816 1.68359375 37.890625 C1.70030624 38.92237854 1.71701874 39.95413208 1.73423767 41.01715088 C1.8743634 48.04360198 2.33949853 55.00364529 3 62 C6.5085783 60.33170542 9.22297822 58.255739 12.25 55.8125 C18.31529706 51.3742813 18.31529706 51.3742813 22.1875 51.75 C25.73042307 52.65751103 28.96272351 54.2731735 32.16796875 56.01171875 C34.37622261 57.20295164 36.65262212 58.1197333 39 59 C39 59.66 39 60.32 39 61 C41.63904371 62.41377341 44.07120629 63.37240135 47 64 C47 64.66 47 65.32 47 66 C47.556875 66.20625 48.11375 66.4125 48.6875 66.625 C53.77359023 69.64916176 56.73199663 74.67019207 59 80 C59.88983348 83.6803388 60.18268157 87.2090162 60.31640625 90.98828125 C60.35846191 92.15705811 60.40051758 93.32583496 60.44384766 94.5300293 C60.48300293 95.77824463 60.5221582 97.02645996 60.5625 98.3125 C60.6042334 99.60905518 60.6459668 100.90561035 60.68896484 102.24145508 C61.04691342 114.16552562 61.19560282 126.07202591 61 138 C60.97317139 139.66699951 60.97317139 139.66699951 60.94580078 141.36767578 C60.87926008 144.82924955 60.7880123 148.28925762 60.6875 151.75 C60.66510254 152.79696045 60.64270508 153.8439209 60.61962891 154.92260742 C60.27430503 164.72058643 58.88838769 174.03031406 53.1875 182.19140625 C51.99481032 184.00790401 51.25572774 185.7189817 50.5 187.75 C48.80757153 191.41692835 47.2463453 192.68118193 44 195 C42.31527186 196.6484073 40.65074223 198.31755962 39 200 C27.64767616 211.51424288 27.64767616 211.51424288 23 215 C22.34 215 21.68 215 21 215 C20.67 215.99 20.34 216.98 20 218 C18.0390625 219.28125 18.0390625 219.28125 15.625 220.5 C12.53891839 222.06817176 10.42636034 223.56738615 8 226 C-1.77719826 232.08094038 -12.57256558 236.53463522 -23.09765625 241.140625 C-25.03393949 241.98660447 -25.03393949 241.98660447 -26.9609375 243.0703125 C-30.95834492 244.89288523 -34.73555646 244.87920505 -39 244 C-43.05830137 241.77665875 -46.47649414 238.98263984 -50 236 C-50.79277344 235.3915625 -51.58554688 234.783125 -52.40234375 234.15625 C-56.90634296 230.57259782 -59.07581991 227.80636353 -60 222 C-60.24844701 218.32826416 -60.23596204 214.6785719 -60.1875 211 C-60.18105469 209.98993896 -60.17460937 208.97987793 -60.16796875 207.93920898 C-60.08640139 199.93095068 -59.7057351 191.97732714 -59 184 C-58.34 184 -57.68 184 -57 184 C-57.061875 182.80375 -57.12375 181.6075 -57.1875 180.375 C-57.20946656 177.21730675 -57.07703674 176.13250319 -55.4375 173.3125 C-53.12593155 167.98584228 -54.30327687 162.65772758 -55 157 C-54.34 157 -53.68 157 -53 157 C-53.33 154.03 -53.66 151.06 -54 148 C-53.34 148 -52.68 148 -52 148 C-52 146.9275 -52 145.855 -52 144.75 C-52 136.51674641 -52 136.51674641 -50.5625 132.5 C-48.63495451 127.06190065 -47.84207558 122.38323812 -47.75390625 116.59375 C-47.7209252 115.11197421 -47.68771438 113.63020351 -47.65429688 112.1484375 C-47.60728447 109.83630409 -47.56291546 107.52418455 -47.52319336 105.21191406 C-47.23298324 89.07831676 -46.81538596 76.42989974 -34.84375 64.54296875 C-30.79823283 61.15741942 -26.41302838 59.2684066 -21.5 57.4375 C-20.3965625 57.02371094 -19.293125 56.60992187 -18.15625 56.18359375 C-17.1146875 55.79300781 -16.073125 55.40242188 -15 55 C-14.2059375 54.66097656 -13.411875 54.32195312 -12.59375 53.97265625 C-9.12300046 52.67112517 -5.60108234 51.88125724 -2 51 C-1.98969254 50.42006287 -1.97938507 49.84012573 -1.96876526 49.24261475 C-1.86060631 43.20801737 -1.74601586 37.17356647 -1.62768555 31.13916016 C-1.58436686 28.88691268 -1.54268958 26.63463301 -1.50268555 24.38232422 C-1.44490897 21.14540911 -1.38123548 17.90865558 -1.31640625 14.671875 C-1.29969376 13.66445251 -1.28298126 12.65703003 -1.26576233 11.61907959 C-1.24581711 10.67840637 -1.22587189 9.73773315 -1.20532227 8.76855469 C-1.18977798 7.94248718 -1.1742337 7.11641968 -1.15821838 6.26531982 C-1.00447734 4.06410512 -0.60602394 2.11720207 0 0 Z " fill="#894925" transform="translate(243,238)"/>
<path d="M0 0 C-0.76452283 6.10768791 -2.06189628 12.05213436 -3.375 18.0625 C-5.11911861 26.14723582 -6.48212199 34.16152469 -7.4375 42.375 C-8.38127065 50.33931232 -10.22957884 57.46662797 -12.93359375 65.00390625 C-15.58504208 72.43066714 -16.27049081 78.71627272 -15.51220703 86.57446289 C-14.99417824 92.54110324 -14.85468333 98.44723684 -14.8671875 104.43359375 C-14.86623077 105.47338882 -14.86527405 106.5131839 -14.86428833 107.58448792 C-14.86361334 109.76506613 -14.86541962 111.94564644 -14.86962891 114.1262207 C-14.87498133 117.42599088 -14.8696633 120.72562463 -14.86328125 124.02539062 C-14.8603473 134.39251941 -14.88301324 144.68123055 -16 155 C-16.66 155 -17.32 155 -18 155 C-18.05285156 155.74636719 -18.10570312 156.49273437 -18.16015625 157.26171875 C-19.31414554 161.02426058 -21.104832 161.82330024 -24.4375 163.8125 C-25.42621094 164.41707031 -26.41492188 165.02164063 -27.43359375 165.64453125 C-30 167 -30 167 -32 167 C-32.04487549 165.71351563 -32.08975098 164.42703125 -32.13598633 163.1015625 C-33.14728493 132.71736395 -33.14728493 132.71736395 -35.19979858 102.39111328 C-35.37116197 100.41916572 -35.52718903 98.44590452 -35.68286133 96.47265625 C-36.2864229 90.13850471 -36.90882943 85.93297521 -41 81 C-41 80.34 -41 79.68 -41 79 C-41.639375 78.731875 -42.27875 78.46375 -42.9375 78.1875 C-45 77 -45 77 -46 74 C-47.423125 73.7834375 -47.423125 73.7834375 -48.875 73.5625 C-52 73 -52 73 -54 72 C-54 71.34 -54 70.68 -54 70 C-55.1034375 70.03996094 -56.206875 70.07992187 -57.34375 70.12109375 C-62.53704147 70.11995086 -67.43137759 69.11331196 -72.5 68.0625 C-74.30158491 67.696755 -76.10366416 67.3334358 -77.90625 66.97265625 C-78.69322266 66.81031494 -79.48019531 66.64797363 -80.29101562 66.48071289 C-87.56292599 65.1903027 -94.61551377 64.81811895 -101.98828125 64.76171875 C-103.03685806 64.75206085 -104.08543488 64.74240295 -105.16578674 64.73245239 C-108.54806056 64.70768184 -111.93014533 64.69506632 -115.3125 64.6875 C-116.46083313 64.68454926 -117.60916626 64.68159851 -118.79229736 64.67855835 C-135.89428423 64.66853163 -152.24703849 65.32371329 -169 69 C-170.1132666 69.21599854 -171.2265332 69.43199707 -172.37353516 69.65454102 C-180.76828529 71.36101254 -180.76828529 71.36101254 -187.625 76.3125 C-188.40101563 77.05113281 -189.17703125 77.78976563 -189.9765625 78.55078125 C-203.20893735 94.56757474 -200.52321994 121.3578006 -200.66955566 140.90814209 C-200.69977232 144.53588765 -200.74615648 148.16342682 -200.79101562 151.79101562 C-200.87613802 158.86055738 -200.94387833 165.9301634 -201 173 C-204.87569533 171.70810156 -205.36313975 170.2057271 -207.4375 166.75 C-209.19213923 163.84522813 -210.77125704 161.24365172 -213.09765625 158.765625 C-217.55652725 152.28332383 -217.25799284 143.75218919 -217.1328125 136.13671875 C-217.12746434 134.27108309 -217.12479137 132.40543823 -217.12451172 130.53979492 C-217.12320251 129.58237396 -217.12189331 128.624953 -217.12054443 127.63851929 C-217.14505711 111.40323954 -217.71173171 97.76494805 -225.08886719 83.01416016 C-230.59701101 70.83779721 -230.44872279 56.37749485 -226 44 C-221.99490136 33.77486181 -215.7747326 26.55203301 -205.6640625 22.03125 C-197.26059035 18.77829304 -189.82485334 17.8453518 -180.875 18 C-170.34979857 18.16639105 -163.61961169 16.39164054 -154.25 11.5 C-129.51771579 -1.26205744 -96.36125462 2.57642356 -69.44287109 4.22680664 C-65.97915601 4.43877559 -62.5150364 4.64277094 -59.05078125 4.84570312 C-56.82549303 4.9787023 -54.60023155 5.11214976 -52.375 5.24609375 C-50.83888062 5.33678383 -50.83888062 5.33678383 -49.27172852 5.42930603 C-43.80909653 5.76754062 -38.42522554 6.28263035 -33 7 C-20.36290736 7.69171454 -10.1168206 0 0 0 Z " fill="#894B21" transform="translate(366,57)"/>
<path d="M0 0 C1.96371773 1.96371773 1.12023181 4.97842681 1.12442875 7.59203434 C1.12083064 8.5440092 1.11723253 9.49598406 1.11352539 10.47680664 C1.11364593 11.48797011 1.11376646 12.49913359 1.11389065 13.54093838 C1.11314121 16.83069965 1.10551159 20.12040504 1.09765625 23.41015625 C1.09618693 25.43452934 1.09516616 27.45890282 1.09460449 29.48327637 C1.0893505 37.00969002 1.07538944 44.53609555 1.0625 52.0625 C1.041875 68.871875 1.02125 85.68125 1 103 C-60.71 103 -122.42 103 -186 103 C-179.41772152 93.12658228 -179.41772152 93.12658228 -176.5625 89.125 C-173.55900021 84.85583327 -170.7433533 80.49466628 -167.96875 76.07421875 C-166.47499769 73.74171266 -164.9575958 71.43829072 -163.40625 69.14453125 C-162.95677002 68.47897217 -162.50729004 67.81341309 -162.04418945 67.12768555 C-161.15864434 65.82048265 -160.269322 64.51582836 -159.37573242 63.21411133 C-157.11935859 59.87912412 -155.46425818 56.76612167 -154 53 C-146.85100918 41.65836795 -137.38990342 31.77192076 -127.30859375 23.01171875 C-125.89400156 21.77903689 -124.50392224 20.51656116 -123.16015625 19.20703125 C-93.58663811 -9.07224102 -37.00145342 -12.82305066 0 0 Z " fill="#59456A" transform="translate(509,386)"/>
<path d="M0 0 C0.94359375 0.309375 1.8871875 0.61875 2.859375 0.9375 C24.19157876 8.48037868 47.89773584 29.10836201 58.25 49.45703125 C58.8408392 50.86273618 59.41296525 52.27659584 59.95800781 53.70068359 C61.10163849 56.22428101 62.48764787 58.27379173 64.109375 60.51953125 C68.20699065 66.27269576 72.14384829 72.12388669 76.0625 78 C77.0844043 79.52367187 77.0844043 79.52367187 78.12695312 81.078125 C78.79791016 82.08359375 79.46886719 83.0890625 80.16015625 84.125 C80.75449463 85.01445312 81.34883301 85.90390625 81.96118164 86.8203125 C84.73881182 91.15223148 87.35243306 95.58738844 90 100 C32.25 100 -25.5 100 -85 100 C-85 65.35 -85 30.7 -85 -5 C-60.0257498 -14.98970008 -24.2122182 -9.73355506 0 0 Z " fill="#59466A" transform="translate(85,389)"/>
<path d="M0 0 C0.99 0.33 1.98 0.66 3 1 C2.18402344 1.83466797 1.36804688 2.66933594 0.52734375 3.52929688 C-2.3692647 7.03784326 -2.65698629 10.08665271 -2.4375 14.53125 C-2.40922119 15.67575623 -2.40922119 15.67575623 -2.38037109 16.84338379 C-1.98221977 29.41018752 -0.93272859 41.9645033 0 54.5 C0.28799821 58.41310318 0.57405579 62.32632087 0.85595703 66.23986816 C1.03024226 68.65542668 1.20807614 71.07073284 1.39013672 73.48571777 C1.86376614 80.00526961 2.11627305 86.46333222 2 93 C2.66418945 92.6376123 3.32837891 92.27522461 4.01269531 91.90185547 C7.09063494 90.22409545 10.17030631 88.54953794 13.25 86.875 C14.29414063 86.30523437 15.33828125 85.73546875 16.4140625 85.1484375 C36.93732244 74 36.93732244 74 40 74 C39.37051324 78.03264956 37.21456085 81.0480731 35 84.375 C34.17946009 85.62745521 33.35915426 86.8800638 32.5390625 88.1328125 C32.11786133 88.77250977 31.69666016 89.41220703 31.26269531 90.07128906 C29.65535762 92.52642591 28.08009724 95.0012334 26.50488281 97.47705078 C22.5004062 103.76065258 18.45942581 110.02682414 14 116 C13.42949921 117.019729 12.85899841 118.03945801 12.27120972 119.09008789 C10.30989932 121.39940604 9.20841882 121.95732678 6.20099258 122.5730896 C2.44747169 122.81309764 -1.28377639 122.85778467 -5.04248047 122.83984375 C-6.48999652 122.85452969 -7.93748914 122.87170352 -9.38494873 122.89117432 C-13.31082497 122.93558221 -17.23586149 122.94146917 -21.1619544 122.93767929 C-24.44225442 122.93743975 -27.72237692 122.95457324 -31.00262749 122.97123432 C-38.74357153 123.00969492 -46.48408425 123.01547356 -54.22509766 123.00195312 C-62.20388725 122.98867347 -70.18082715 123.03439051 -78.15924156 123.10858059 C-85.01555421 123.1700165 -91.87127252 123.19269046 -98.72785485 123.18490696 C-102.82037648 123.18077543 -106.911459 123.19166661 -111.00371933 123.24069214 C-114.85424121 123.28529825 -118.70176264 123.28142848 -122.5522995 123.2408371 C-123.96198748 123.23402759 -125.37187873 123.2441529 -126.78129196 123.27280426 C-137.41111579 123.47391519 -137.41111579 123.47391519 -141.34712601 119.82270813 C-143.14412282 117.28643141 -144.59375926 114.7678035 -146 112 C-146.82160599 110.74438562 -147.65745357 109.49771118 -148.51953125 108.26953125 C-149.28497667 107.11793282 -150.04929227 105.96558265 -150.8125 104.8125 C-151.22773926 104.18811035 -151.64297852 103.5637207 -152.07080078 102.92041016 C-154.29386474 99.57704886 -156.50965535 96.22893448 -158.72265625 92.87890625 C-159.16697998 92.20819092 -159.61130371 91.53747559 -160.0690918 90.84643555 C-160.91507228 89.56931976 -161.75911143 88.29091501 -162.60083008 87.01098633 C-164.36838139 84.34475496 -166.15192129 81.82142585 -168.2265625 79.3828125 C-170.11743053 76.84221889 -170.64411039 75.1140341 -171 72 C-162.81085354 75.94929928 -154.73488844 80.00270253 -146.9375 84.6875 C-146.04695923 85.22105103 -146.04695923 85.22105103 -145.13842773 85.76538086 C-140.94720526 88.3216081 -136.9698228 91.11239641 -133 94 C-132.67 92.35 -132.34 90.7 -132 89 C-130.59346056 91.51167757 -129.91630194 93.44359973 -129.375 96.3125 C-127.44730433 101.48222929 -124.30777579 103.72234451 -120 107 C-119.20851562 107.65871094 -118.41703125 108.31742187 -117.6015625 108.99609375 C-112.66105491 112.86901532 -108.86797043 115.04521893 -102.4921875 114.55859375 C-98.86030136 113.74455031 -95.86784616 112.22635483 -92.62890625 110.421875 C-89.83479091 108.91064471 -87.01359775 107.73532336 -84.0625 106.5625 C-75.1857569 102.92954723 -66.94041923 98.33663434 -59.19140625 92.6796875 C-58.57136719 92.22851562 -57.95132813 91.77734375 -57.3125 91.3125 C-56.75175781 90.89613281 -56.19101562 90.47976563 -55.61328125 90.05078125 C-54 89 -54 89 -51 88 C-49.29777876 86.3696631 -47.63666545 84.69613731 -46 83 C-44.02405823 81.11951758 -42.0124183 79.27881167 -40 77.4375 C-39.49210938 76.96892578 -38.98421875 76.50035156 -38.4609375 76.01757812 C-36.11483272 73.86698207 -33.7455329 71.79765703 -31.25390625 69.81640625 C-28.73489442 67.78635339 -26.97783551 65.55204582 -25 63 C-24.29875 62.34 -23.5975 61.68 -22.875 61 C-20.75046145 58.73382555 -20.0785188 56.89851928 -19 54 C-18.360625 52.989375 -17.72125 51.97875 -17.0625 50.9375 C-10.36044279 39.12792706 -10.89006912 24.17366209 -10 11 C-9.34 11 -8.68 11 -8 11 C-7.5978125 10.0409375 -7.5978125 10.0409375 -7.1875 9.0625 C-6 7 -6 7 -3 6 C-3 5.01 -3 4.02 -3 3 C-2.34 3 -1.68 3 -1 3 C-0.67 2.01 -0.34 1.02 0 0 Z " fill="#D39880" transform="translate(314,367)"/>
<path d="M0 0 C4.09026521 3.06377099 5.92688222 6.40065785 8 11 C9.85350652 14.66316147 9.85350652 14.66316147 13 17 C13 33.83 13 50.66 13 68 C6.45679525 71.27160238 -5.53458156 70.11139455 -12.30078125 67.94140625 C-14.83086674 66.48945983 -16.86413357 64.98300124 -19 63 C-19.63808594 62.40832031 -20.27617187 61.81664062 -20.93359375 61.20703125 C-25.76043459 56.17258436 -29.01119012 50.25838675 -32 44 C-32.34289062 43.30519531 -32.68578125 42.61039063 -33.0390625 41.89453125 C-36.40603852 33.76029478 -36.60650627 21.68333158 -33.875 13.375 C-26.47330907 0.05195633 -14.75209123 -3.44164293 0 0 Z " fill="#BE8270" transform="translate(152,213)"/>
<path d="M0 0 C0 10.23 0 20.46 0 31 C-23.43 31 -46.86 31 -71 31 C-71 28.36 -71 25.72 -71 23 C-70.01 23 -69.02 23 -68 23 C-68 22.34 -68 21.68 -68 21 C-66.0429132 20.32968281 -64.08428887 19.66385317 -62.125 19 C-61.03445313 18.62875 -59.94390625 18.2575 -58.8203125 17.875 C-56 17 -56 17 -54 17 C-54 16.34 -54 15.68 -54 15 C-52.9790625 14.5978125 -52.9790625 14.5978125 -51.9375 14.1875 C-49.8626201 13.34871876 -47.82205391 12.42257545 -45.8125 11.4375 C-41.38047648 9.49603837 -36.78200021 9.27903019 -32 9 C-32 8.34 -32 7.68 -32 7 C-28.64808052 6.01302841 -25.29310737 5.03685244 -21.9375 4.0625 C-20.99455078 3.78470703 -20.05160156 3.50691406 -19.08007812 3.22070312 C-12.68883632 1.3723649 -6.69613261 0 0 0 Z " fill="#3B2C49" transform="translate(510,458)"/>
<path d="M0 0 C0.87998142 8.99819455 1.23223586 17.95938449 1.38671875 26.99609375 C1.41245664 28.40186137 1.43823979 29.80762816 1.46406555 31.21339417 C1.51654291 34.13367496 1.56553909 37.05399163 1.61254883 39.97436523 C1.67337024 43.70894307 1.74761026 47.44312993 1.82492352 51.17739773 C1.88254577 54.06923682 1.93081848 56.96117769 1.976511 59.85322762 C1.99982388 61.23074591 2.02654938 62.60821104 2.05682945 63.9855938 C2.09811423 65.90614358 2.12492272 67.82698795 2.15112305 69.74780273 C2.17031296 70.83745834 2.18950287 71.92711395 2.20927429 73.04978943 C1.98980524 76.14371896 1.41375144 78.24886994 0 81 C-2.53125 83.01953125 -2.53125 83.01953125 -5.5 84.8125 C-6.4796875 85.41707031 -7.459375 86.02164063 -8.46875 86.64453125 C-11 88 -11 88 -13 88 C-15.18063087 40.94244971 -15.18063087 40.94244971 -15.375 23.25 C-15.40078125 22.13592773 -15.4265625 21.02185547 -15.453125 19.87402344 C-15.47159894 12.67149479 -15.47159894 12.67149479 -13.1015625 9.296875 C-11 8 -11 8 -9 8 C-9 7.34 -9 6.68 -9 6 C-8.34 6 -7.68 6 -7 6 C-6.62875 5.071875 -6.62875 5.071875 -6.25 4.125 C-4.83710506 1.72307861 -2.96976813 0 0 0 Z " fill="#703D1A" transform="translate(347,136)"/>
<path d="M0 0 C-0.62948676 4.03264956 -2.78543915 7.0480731 -5 10.375 C-5.82053991 11.62745521 -6.64084574 12.8800638 -7.4609375 14.1328125 C-7.88213867 14.77250977 -8.30333984 15.41220703 -8.73730469 16.07128906 C-10.34464238 18.52642591 -11.91990276 21.0012334 -13.49511719 23.47705078 C-17.4995938 29.76065258 -21.54057419 36.02682414 -26 42 C-26.68312256 43.02496582 -27.36624512 44.04993164 -28.07006836 45.10595703 C-29.62722103 46.95449575 -30.533937 47.86901334 -32.8765564 48.52740479 C-35.13436954 48.69369179 -37.31985076 48.67534715 -39.58203125 48.5859375 C-40.80329964 48.57320297 -40.80329964 48.57320297 -42.04924011 48.56021118 C-44.63836525 48.52674176 -47.22432381 48.4514836 -49.8125 48.375 C-51.5722205 48.34489164 -53.33199004 48.31751734 -55.09179688 48.29296875 C-59.39574304 48.22697279 -63.69733555 48.12350329 -68 48 C-65.35230302 45.30246336 -62.77067254 42.67402027 -59.73046875 40.421875 C-59.15522461 39.98721924 -58.57998047 39.55256348 -57.98730469 39.10473633 C-57.39336914 38.65767334 -56.79943359 38.21061035 -56.1875 37.75 C-51.00099433 33.78412799 -46.56946717 29.69166469 -42.453125 24.58203125 C-41.97359375 24.05996094 -41.4940625 23.53789062 -41 23 C-40.34 23 -39.68 23 -39 23 C-38.93659424 22.4023584 -38.87318848 21.8047168 -38.80786133 21.18896484 C-37.65568069 18.06703931 -35.98836577 17.50797001 -33.07421875 15.9765625 C-32.04876953 15.43 -31.02332031 14.8834375 -29.96679688 14.3203125 C-28.88462891 13.76085937 -27.80246094 13.20140625 -26.6875 12.625 C-25.64787109 12.07328125 -24.60824219 11.5215625 -23.53710938 10.953125 C-20.36910703 9.27975984 -17.18800811 7.63490077 -14 6 C-12.87803223 5.42217773 -11.75606445 4.84435547 -10.60009766 4.24902344 C-8.98240479 3.4257959 -8.98240479 3.4257959 -7.33203125 2.5859375 C-6.35596924 2.08884277 -5.37990723 1.59174805 -4.37426758 1.07958984 C-2 0 -2 0 0 0 Z " fill="#EDECE3" transform="translate(354,441)"/>
<path d="M0 0 C8.18914646 3.94929928 16.26511156 8.00270253 24.0625 12.6875 C24.65619385 13.04320068 25.2498877 13.39890137 25.86157227 13.76538086 C30.05279474 16.3216081 34.0301772 19.11239641 38 22 C38.33 20.35 38.66 18.7 39 17 C40.40653944 19.51167757 41.08369806 21.44359973 41.625 24.3125 C44.59338971 32.2731815 53.20032876 36.70122441 59.98730469 41.3605957 C60.56254883 41.75980225 61.13779297 42.15900879 61.73046875 42.5703125 C62.23989014 42.91852051 62.74931152 43.26672852 63.27416992 43.62548828 C65.70772463 45.56365676 67.82739782 47.77772118 70 50 C64.71673653 50.24825571 59.43689973 50.42910794 54.14916992 50.54931641 C52.35332084 50.59943914 50.55787657 50.66756372 48.76342773 50.75439453 C33.88182328 51.45616229 33.88182328 51.45616229 29.39233398 47.98217773 C27.57816191 45.39908504 26.27654571 42.88158103 25 40 C24.18833949 38.7379338 23.35093562 37.49177971 22.48046875 36.26953125 C21.71502333 35.11793282 20.95070773 33.96558265 20.1875 32.8125 C19.77226074 32.18811035 19.35702148 31.5637207 18.92919922 30.92041016 C16.70613526 27.57704886 14.49034465 24.22893448 12.27734375 20.87890625 C11.83302002 20.20819092 11.38869629 19.53747559 10.9309082 18.84643555 C10.08492772 17.56931976 9.24088857 16.29091501 8.39916992 15.01098633 C6.63161861 12.34475496 4.84807871 9.82142585 2.7734375 7.3828125 C0.88256947 4.84221889 0.35588961 3.1140341 0 0 Z " fill="#EDEBE3" transform="translate(143,439)"/>
<path d="M0 0 C0 7.59 0 15.18 0 23 C-5.09936892 23.7229485 -10.19880181 24.43826951 -15.30151367 25.13623047 C-17.02897542 25.37462243 -18.75589397 25.61699194 -20.48217773 25.86376953 C-32.06896983 27.51661615 -43.29536512 28.34138123 -55 28 C-54.96333357 22.44407167 -54.91622694 18.27471625 -50.875 14.125 C-40.87832544 5.48414973 -28.94345983 2.55420677 -16.0625 1.25 C-14.95326172 1.12496094 -13.84402344 0.99992188 -12.70117188 0.87109375 C-8.43242705 0.40109281 -4.29864779 0 0 0 Z " fill="#8F4F25" transform="translate(226,160)"/>
<path d="M0 0 C10.04126202 -0.38131375 19.22587045 0.91789242 29 3 C29.97582031 3.20496094 30.95164062 3.40992188 31.95703125 3.62109375 C37.70526904 5.07852097 41.95409468 7.72242508 46.67578125 11.28125 C49.01057412 13.07122646 49.01057412 13.07122646 51.7421875 14.609375 C54 16 54 16 54.8125 17.75 C55.06958006 20.83496073 55.01079399 23.90572288 55 27 C43.05073039 27.54799198 31.45980756 26.64206149 19.625 25.0625 C18.93856415 24.97109741 18.2521283 24.87969482 17.54489136 24.78552246 C11.65951991 23.99401995 5.82434723 23.16486945 0 22 C0 14.74 0 7.48 0 0 Z " fill="#8F4F24" transform="translate(273,161)"/>
<path d="M0 0 C3.70851695 1.49767031 5.44005343 2.86937306 7.22265625 6.46875 C10.87051846 15.98718616 11 23.59393028 11 34 C-1.21 34 -13.42 34 -26 34 C-23.2186154 21.4837693 -19.99952935 9.95404631 -10.02734375 1.28515625 C-6.81141664 -0.75345651 -3.63040145 -0.58871375 0 0 Z " fill="#D19681" transform="translate(428,455)"/>
<path d="M0 0 C3.32302186 1.56377499 5.56184007 3.21353151 8 6 C8 6.66 8 7.32 8 8 C8.99 8.33 9.98 8.66 11 9 C11 9.66 11 10.32 11 11 C11.99 11.33 12.98 11.66 14 12 C14 30.48 14 48.96 14 68 C10.03245603 66.01622802 9.16227015 65.2707195 6.875 61.75 C6.37742188 61.00234375 5.87984375 60.2546875 5.3671875 59.484375 C2.50642441 54.28595978 1.50258315 48.96848208 0.875 43.125 C0.79008301 42.34213623 0.70516602 41.55927246 0.61767578 40.75268555 C-0.63977901 27.23820918 -0.16322447 13.55642004 0 0 Z " fill="#572F12" transform="translate(150,160)"/>
<path d="M0 0 C0 0.66 0 1.32 0 2 C0.639375 2.2475 1.27875 2.495 1.9375 2.75 C4 4 4 4 4.62890625 6.078125 C4.75136719 6.71234375 4.87382812 7.3465625 5 8 C-2.96642007 15.043596 -9.33097748 17.59086541 -20 17 C-22.81825855 16.29371187 -25.48354925 15.30619109 -28.1875 14.25 C-28.88552734 13.99734375 -29.58355469 13.7446875 -30.30273438 13.484375 C-34.36925874 11.93669684 -37.13211876 10.40885109 -40 7 C-38.53304432 3.22197447 -36.64851031 1.83099027 -33.1875 -0.1875 C-32.33542969 -0.69667969 -31.48335937 -1.20585937 -30.60546875 -1.73046875 C-21.25259991 -6.28771369 -8.609253 -5.6223693 0 0 Z " fill="#B85951" transform="translate(210,267)"/>
<path d="M0 0 C0.69287109 0.00451172 1.38574219 0.00902344 2.09960938 0.01367188 C3.79561068 0.02536844 5.49156703 0.04330076 7.1875 0.0625 C7.1875 0.7225 7.1875 1.3825 7.1875 2.0625 C8.05375 2.2790625 8.05375 2.2790625 8.9375 2.5 C11.02083333 3.02083333 13.10416667 3.54166667 15.1875 4.0625 C15.1875 4.7225 15.1875 5.3825 15.1875 6.0625 C16.115625 6.5265625 16.115625 6.5265625 17.0625 7 C18.4375 7.6875 19.8125 8.375 21.1875 9.0625 C19.67555186 13.29595479 17.03075085 14.91914857 13.1875 17.0625 C9.8125 17.8125 9.8125 17.8125 7.1875 18.0625 C7.1875 18.7225 7.1875 19.3825 7.1875 20.0625 C-3.66477216 20.4180963 -10.93125157 20.00312422 -20.8125 15.0625 C-20.8125 12.0925 -20.8125 9.1225 -20.8125 6.0625 C-20.1525 6.0625 -19.4925 6.0625 -18.8125 6.0625 C-18.8125 5.4025 -18.8125 4.7425 -18.8125 4.0625 C-16.8325 3.7325 -14.8525 3.4025 -12.8125 3.0625 C-12.8125 2.4025 -12.8125 1.7425 -12.8125 1.0625 C-8.52952469 0.00630997 -4.38264354 -0.05452092 0 0 Z " fill="#B85850" transform="translate(306.8125,262.9375)"/>
<path d="M0 0 C1.18916016 0.03383789 1.18916016 0.03383789 2.40234375 0.06835938 C4.3523762 0.12709529 6.30143312 0.21677346 8.25 0.3125 C8.25 0.9725 8.25 1.6325 8.25 2.3125 C9.4875 2.43625 9.4875 2.43625 10.75 2.5625 C15.0977775 3.49416661 18.33328645 5.21908414 22.25 7.3125 C21.92 11.9325 21.59 16.5525 21.25 21.3125 C13 21.3125 4.75 21.3125 -3.75 21.3125 C-4.08 20.3225 -4.41 19.3325 -4.75 18.3125 C-7.39 18.3125 -10.03 18.3125 -12.75 18.3125 C-12.85864945 16.25117858 -12.93588321 14.18818679 -13 12.125 C-13.04640625 10.97644531 -13.0928125 9.82789063 -13.140625 8.64453125 C-12.14364471 0.14028938 -7.31824064 -0.39443254 0 0 Z " fill="#5F3012" transform="translate(196.75,220.6875)"/>
<path d="M0 0 C4.09645656 -0.2667142 5.86733816 -0.07910287 9.33984375 2.28515625 C12.87021905 7.42024759 13.4446155 12.15764558 13.40234375 18.28515625 C9.65399112 18.79803128 5.90346674 19.29298763 2.15234375 19.78515625 C1.10820312 19.92824219 0.0640625 20.07132813 -1.01171875 20.21875 C-8.24813261 21.15680365 -15.30374515 21.46185935 -22.59765625 21.28515625 C-23.80895433 16.31883414 -23.61999049 13.00393614 -21.59765625 8.28515625 C-18.14203724 3.65293077 -14.33775337 1.93433851 -8.72265625 0.91015625 C-5.81730953 0.56471453 -2.9079307 0.31921645 0 0 Z " fill="#5F3114" transform="translate(302.59765625,220.71484375)"/>
<path d="M0 0 C0 7.59 0 15.18 0 23 C-14.85 23 -29.7 23 -45 23 C-40.5 18.5 -40.5 18.5 -36 18 C-35.67 17.01 -35.34 16.02 -35 15 C-32.84765625 13.75390625 -32.84765625 13.75390625 -30.0625 12.5625 C-29.07507813 12.13710938 -28.08765625 11.71171875 -27.0703125 11.2734375 C-25.55050781 10.64308594 -25.55050781 10.64308594 -24 10 C-23.04867188 9.60039062 -22.09734375 9.20078125 -21.1171875 8.7890625 C-14.33244681 6 -14.33244681 6 -12 6 C-12 5.34 -12 4.68 -12 4 C-10.3767313 3.3291288 -8.75132422 2.66342971 -7.125 2 C-6.22007812 1.62875 -5.31515625 1.2575 -4.3828125 0.875 C-2 0 -2 0 0 0 Z " fill="#574468" transform="translate(510,466)"/>
<path d="M0 0 C0.95326172 -0.00708984 1.90652344 -0.01417969 2.88867188 -0.02148438 C8.10923812 0.02661439 8.10923812 0.02661439 10.1875 0.4375 C12.6169516 4.0816774 12.34929575 6.14991272 12.1875 10.4375 C8.15624894 11.85515725 4.21507526 12.9227935 0.01953125 13.7265625 C-1.69073242 14.05527344 -1.69073242 14.05527344 -3.43554688 14.390625 C-4.61181641 14.61234375 -5.78808594 14.8340625 -7 15.0625 C-8.18787109 15.29195313 -9.37574219 15.52140625 -10.59960938 15.7578125 C-19.41296968 17.4375 -19.41296968 17.4375 -22.8125 17.4375 C-23.42163706 10.24968274 -23.42163706 10.24968274 -20.75 6.6875 C-13.53343819 1.15992074 -9.02558854 -0.19309403 0 0 Z " fill="#F0E7E0" transform="translate(255.8125,311.5625)"/>
<path d="M0 0 C1.15693359 0.00322266 2.31386719 0.00644531 3.50585938 0.00976562 C4.70404297 0.01814453 5.90222656 0.02652344 7.13671875 0.03515625 C8.96299805 0.04192383 8.96299805 0.04192383 10.82617188 0.04882812 C13.82557101 0.06059047 16.82486964 0.07702799 19.82421875 0.09765625 C19.82421875 0.75765625 19.82421875 1.41765625 19.82421875 2.09765625 C21.14421875 2.09765625 22.46421875 2.09765625 23.82421875 2.09765625 C23.82421875 3.41765625 23.82421875 4.73765625 23.82421875 6.09765625 C17.28837164 8.47432793 11.03767578 8.39549651 4.13671875 8.34765625 C2.44579102 8.35925781 2.44579102 8.35925781 0.72070312 8.37109375 C-0.36275391 8.36851562 -1.44621094 8.3659375 -2.5625 8.36328125 C-3.54436279 8.36102539 -4.52622559 8.35876953 -5.5378418 8.35644531 C-8.22612393 8.0927175 -9.87415183 7.47011566 -12.17578125 6.09765625 C-11.84578125 4.44765625 -11.51578125 2.79765625 -11.17578125 1.09765625 C-7.38503588 0.21202536 -3.88882227 -0.01915676 0 0 Z " fill="#A36355" transform="translate(288.17578125,248.90234375)"/>
<path d="M0 0 C0.96099609 0.00451172 1.92199219 0.00902344 2.91210938 0.01367188 C5.25397422 0.02532294 7.59570181 0.04167975 9.9375 0.0625 C8.88292408 4.89437514 6.90102221 6.1505245 2.9375 9.0625 C2.2775 9.0625 1.6175 9.0625 0.9375 9.0625 C0.9375 9.7225 0.9375 10.3825 0.9375 11.0625 C-2.6925 11.0625 -6.3225 11.0625 -10.0625 11.0625 C-10.0625 10.4025 -10.0625 9.7425 -10.0625 9.0625 C-11.1453125 8.9696875 -11.1453125 8.9696875 -12.25 8.875 C-15.94649074 7.8071249 -17.59388868 5.95430184 -20.0625 3.0625 C-20.0625 2.4025 -20.0625 1.7425 -20.0625 1.0625 C-13.33065587 0.18563415 -6.7839632 -0.06137197 0 0 Z " fill="#6D3A15" transform="translate(255.0625,339.9375)"/>
<path d="M0 0 C0.93714844 -0.00773438 1.87429687 -0.01546875 2.83984375 -0.0234375 C7.47262548 -0.01029486 11.31085512 0.01342265 15.5 2.25 C15.5 3.57 15.5 4.89 15.5 6.25 C12.15034005 8.48310663 11.0123606 8.50646703 7.09765625 8.515625 C6.04255859 8.51820313 4.98746094 8.52078125 3.90039062 8.5234375 C2.79888672 8.51570313 1.69738281 8.50796875 0.5625 8.5 C-1.08395508 8.51160156 -1.08395508 8.51160156 -2.76367188 8.5234375 C-3.82005859 8.52085937 -4.87644531 8.51828125 -5.96484375 8.515625 C-6.930271 8.51336914 -7.89569824 8.51111328 -8.89038086 8.50878906 C-11.56273932 8.24377831 -13.20962513 7.6117166 -15.5 6.25 C-15.5 4.93 -15.5 3.61 -15.5 2.25 C-10.52231291 -0.4075787 -5.48752818 -0.04528909 0 0 Z " fill="#A16254" transform="translate(205.5,248.75)"/>
<path d="M0 0 C0.66 0 1.32 0 2 0 C2.75401256 7.82974595 3.14923969 15.56909632 3.1328125 23.43359375 C3.13376923 24.47338882 3.13472595 25.5131839 3.13571167 26.58448792 C3.13638666 28.76506613 3.13458038 30.94564644 3.13037109 33.1262207 C3.12501867 36.42599088 3.1303367 39.72562463 3.13671875 43.02539062 C3.1396527 53.39251941 3.11698676 63.68123055 2 74 C1.67 74 1.34 74 1 74 C-0.33494047 60.72885558 -0.11236703 47.44608322 -0.0625 34.125 C-0.05747466 31.77994887 -0.05291358 29.4348967 -0.04882812 27.08984375 C-0.03790518 21.39320609 -0.02124917 15.69660802 0 10 C-0.66 9.67 -1.32 9.34 -2 9 C-1.67 8.01 -1.34 7.02 -1 6 C-0.64763503 4.00326516 -0.31165441 2.00349261 0 0 Z " fill="#9A7A64" transform="translate(348,138)"/>
<path d="M0 0 C2.18975773 3.28463659 2.99806563 6.20696275 4 10 C4.99 9.67 5.98 9.34 7 9 C7.33 10.65 7.66 12.3 8 14 C8.66 14 9.32 14 10 14 C10 17.63 10 21.26 10 25 C9.34 25 8.68 25 8 25 C8.41934672 43.07282079 9.03763398 61.01482014 11 79 C10.34 78.67 9.68 78.34 9 78 C6.87938906 71.44610657 6.71879933 64.60863261 6.7265625 57.78515625 C6.70627864 55.86262433 6.68542795 53.94009833 6.6640625 52.01757812 C6.64150382 49.03811591 6.62499291 46.05888938 6.61914062 43.0793457 C6.63570325 27.61343793 6.63570325 27.61343793 2 13 C0.63825218 8.68528555 -0.28447612 4.55161791 0 0 Z " fill="#6F4B32" transform="translate(142,135)"/>
<path d="M0 0 C0.33 0 0.66 0 1 0 C1.01030746 0.59975647 1.02061493 1.19951294 1.03123474 1.81744385 C1.14020447 8.11276184 1.25471732 14.40796239 1.37231445 20.703125 C1.41537617 23.04619874 1.45706871 25.38929808 1.49731445 27.73242188 C1.55572114 31.11856779 1.61920494 34.50458816 1.68359375 37.890625 C1.70866249 39.43825531 1.70866249 39.43825531 1.73423767 41.01715088 C1.01496756 53.3865437 1.01496756 53.3865437 5 64 C3.68 63.67 2.36 63.34 1 63 C-1.61386353 52.19504345 -1.27068624 41.27623583 -1.20581055 30.23388672 C-1.18738712 26.98006462 -1.18530248 23.72652544 -1.18554688 20.47265625 C-1.18063654 18.39843504 -1.17481035 16.32421574 -1.16796875 14.25 C-1.16685593 13.28022217 -1.1657431 12.31044434 -1.16459656 11.3112793 C-1.15821671 10.40933838 -1.15183685 9.50739746 -1.14526367 8.578125 C-1.14145187 7.78825195 -1.13764008 6.99837891 -1.13371277 6.18457031 C-1.00045113 4.00737045 -0.59944709 2.09274539 0 0 Z " fill="#9B5D3E" transform="translate(243,238)"/>
<path d="M0 0 C-0.59167969 0.31453125 -1.18335938 0.6290625 -1.79296875 0.953125 C-7.07400453 3.81332709 -11.72702939 6.72702939 -16 11 C-19.01586454 12.105817 -20.96083486 11.97687451 -24 11 C-24 11.66 -24 12.32 -24 13 C-26 14.625 -26 14.625 -28 16 C-28 15.34 -28 14.68 -28 14 C-29.98 15.32 -31.96 16.64 -34 18 C-34.66 17.67 -35.32 17.34 -36 17 C-29.87020311 12.11694146 -23.69054279 8.1070685 -16.6875 4.625 C-16.01847656 4.29177734 -15.34945313 3.95855469 -14.66015625 3.61523438 C-4.27156282 -1.42385427 -4.27156282 -1.42385427 0 0 Z " fill="#7E7086" transform="translate(422,388)"/>
<path d="M0 0 C9.54035728 -0.20967818 18.88227762 -0.03401917 28.375 1 C38.60842904 2.11137445 48.71665886 2.19881863 59 2 C59 2.66 59 3.32 59 4 C55.57426063 4.77528479 52.42760755 5.11918778 48.91796875 5.09765625 C47.98662109 5.09443359 47.05527344 5.09121094 46.09570312 5.08789062 C45.13599609 5.07951172 44.17628906 5.07113281 43.1875 5.0625 C42.20845703 5.05798828 41.22941406 5.05347656 40.22070312 5.04882812 C37.81373889 5.03708684 35.40690143 5.02066419 33 5 C33 4.34 33 3.68 33 3 C32.21351074 3.01047363 31.42702148 3.02094727 30.61669922 3.03173828 C27.03616561 3.07343991 23.45568324 3.09937139 19.875 3.125 C18.01875 3.15013672 18.01875 3.15013672 16.125 3.17578125 C14.92617188 3.18222656 13.72734375 3.18867187 12.4921875 3.1953125 C11.39245605 3.20578613 10.29272461 3.21625977 9.15966797 3.22705078 C5.81543058 2.98673701 3.12291305 2.18909337 0 1 C0 0.67 0 0.34 0 0 Z " fill="#9E7258" transform="translate(294,62)"/>
<path d="M0 0 C1.125 1.625 1.125 1.625 2 4 C1.69449219 4.80953125 1.38898438 5.6190625 1.07421875 6.453125 C-0.4153659 11.37146266 -0.33847716 16.0136851 -0.3125 21.125 C-0.31193604 22.14948242 -0.31137207 23.17396484 -0.31079102 24.22949219 C-0.23055821 30.83480202 0.34782701 36.60058247 2.44140625 42.890625 C3 45 3 45 2 48 C-4.13286235 30.94111589 -5.77555941 17.32667823 0 0 Z " fill="#9A755E" transform="translate(141,98)"/>
<path d="M0 0 C-0.81840016 6.55660819 -2.19362208 12.97654958 -3.5625 19.4375 C-3.79646484 20.55060547 -4.03042969 21.66371094 -4.27148438 22.81054688 C-4.84565622 25.5407926 -5.42188308 28.2705874 -6 31 C-8.16880748 27.12608629 -7.95982562 25.07291111 -7.125 20.6875 C-6.3028597 16.00762447 -5.77960185 11.73856012 -6 7 C-7.32 7.33 -8.64 7.66 -10 8 C-10 8.66 -10 9.32 -10 10 C-10.66 10 -11.32 10 -12 10 C-12.33 8.68 -12.66 7.36 -13 6 C-12.0925 5.566875 -11.185 5.13375 -10.25 4.6875 C-7.07459389 3.16060591 -7.07459389 3.16060591 -4.8125 1.3125 C-3 0 -3 0 0 0 Z " fill="#8E5B38" transform="translate(366,57)"/>
<path d="M0 0 C0.66 0.33 1.32 0.66 2 1 C1.67 3.31 1.34 5.62 1 8 C0.34 8 -0.32 8 -1 8 C-0.67 10.97 -0.34 13.94 0 17 C-0.66 17 -1.32 17 -2 17 C-1.83628906 17.56203125 -1.67257813 18.1240625 -1.50390625 18.703125 C-0.97135003 21.13059056 -0.90101319 23.26889681 -0.9375 25.75 C-0.94652344 26.54921875 -0.95554688 27.3484375 -0.96484375 28.171875 C-0.98224609 29.07679688 -0.98224609 29.07679688 -1 30 C-0.34 30.33 0.32 30.66 1 31 C0.01 31.66 -0.98 32.32 -2 33 C-2.80092254 35.64691668 -2.80092254 35.64691668 -3.1875 38.625 C-3.34605469 39.62789063 -3.50460938 40.63078125 -3.66796875 41.6640625 C-3.77753906 42.43492187 -3.88710937 43.20578125 -4 44 C-4.33 44 -4.66 44 -5 44 C-5.23770605 34.66343452 -4.49795768 25.51962035 -3.5 16.25 C-3.35490589 14.85943361 -3.2103714 13.46880872 -3.06640625 12.078125 C-2.7164074 8.71813603 -2.36083533 5.35883948 -2 2 C-1.34 2 -0.68 2 0 2 C0 1.34 0 0.68 0 0 Z " fill="#997675" transform="translate(190,378)"/>
<path d="M0 0 C1.5149707 -0.0009668 1.5149707 -0.0009668 3.06054688 -0.00195312 C8.60580918 0.03852324 13.95186383 0.37215574 19.4375 1.1875 C19.4375 1.5175 19.4375 1.8475 19.4375 2.1875 C3.11450193 3.44139286 -13.2039823 3.28890222 -29.5625 3.1875 C-29.5625 2.8575 -29.5625 2.5275 -29.5625 2.1875 C-19.69150994 0.68539282 -9.99004045 -0.00614772 0 0 Z " fill="#867A90" transform="translate(468.5625,379.8125)"/>
<path d="M0 0 C0.66 0.33 1.32 0.66 2 1 C-1.6168768 5.76770124 -6.46627413 6.60770038 -12 8 C-12.59844727 8.17563477 -13.19689453 8.35126953 -13.81347656 8.53222656 C-16.40244005 9.08609593 -18.77434756 9.11236474 -21.421875 9.09765625 C-22.44667969 9.09443359 -23.47148437 9.09121094 -24.52734375 9.08789062 C-25.59082031 9.07951172 -26.65429688 9.07113281 -27.75 9.0625 C-28.82894531 9.05798828 -29.90789062 9.05347656 -31.01953125 9.04882812 C-33.67974383 9.03705727 -36.33984365 9.02061399 -39 9 C-38.67 8.34 -38.34 7.68 -38 7 C-37.44650879 7.01571045 -36.89301758 7.0314209 -36.32275391 7.04760742 C-24.27217146 7.3447966 -14.41204969 7.32211048 -3.5 1.75 C-2.345 1.1725 -1.19 0.595 0 0 Z " fill="#AE9885" transform="translate(213,68)"/>
<path d="M0 0 C3.06213605 3.79603643 4.49032973 7.14869414 5 12 C4.1875 15 4.1875 15 3 18 C2.54969788 20.66307704 2.27815388 23.31117919 2 26 C1.67 26 1.34 26 1 26 C0.67 28.31 0.34 30.62 0 33 C-0.33 33 -0.66 33 -1 33 C-1.1139891 21.94305724 -0.91050683 11.02363628 0 0 Z " fill="#A37B7A" transform="translate(184,422)"/>
<path d="M0 0 C0.99 0.33 1.98 0.66 3 1 C2.1850708 1.8245166 1.3701416 2.6490332 0.53051758 3.49853516 C-2.46876447 7.1156607 -2.65382654 10.45128652 -2.48828125 15.0234375 C-2.48120651 15.76961334 -2.47413177 16.51578918 -2.46684265 17.28457642 C-2.43903177 19.64910592 -2.376328 22.0111963 -2.3125 24.375 C-2.2873995 25.98564268 -2.26458939 27.59632279 -2.24414062 29.20703125 C-2.1892501 33.13894912 -2.10307849 37.06906223 -2 41 C-2.33 41 -2.66 41 -3 41 C-3.99 29.78 -4.98 18.56 -6 7 C-5.01 6.67 -4.02 6.34 -3 6 C-3 5.01 -3 4.02 -3 3 C-2.34 3 -1.68 3 -1 3 C-0.67 2.01 -0.34 1.02 0 0 Z " fill="#CFA899" transform="translate(314,367)"/>
<path d="M0 0 C1.44342773 -0.01740234 1.44342773 -0.01740234 2.91601562 -0.03515625 C4.29370117 -0.02935547 4.29370117 -0.02935547 5.69921875 -0.0234375 C6.95545044 -0.01836182 6.95545044 -0.01836182 8.23706055 -0.01318359 C8.92195557 0.11491699 9.60685059 0.24301758 10.3125 0.375 C12.7419516 4.0191774 12.47429575 6.08741272 12.3125 10.375 C6.75180418 12.62933614 1.2339349 12.97461828 -4.6875 13.375 C-1.73147962 11.40431975 -0.09765799 10.88940462 3.3125 10.25 C4.17875 10.08242188 5.045 9.91484375 5.9375 9.7421875 C8.3125 9.375 8.3125 9.375 11.3125 9.375 C11.3125 7.725 11.3125 6.075 11.3125 4.375 C10.3225 4.045 9.3325 3.715 8.3125 3.375 C7.9825 3.045 7.6525 2.715 7.3125 2.375 C4.67503244 2.24814194 2.07540834 2.18979383 -0.5625 2.1875 C-1.29597656 2.17525391 -2.02945313 2.16300781 -2.78515625 2.15039062 C-6.62313514 2.13990434 -8.42097074 2.19731383 -11.6875 4.375 C-13.875 4 -13.875 4 -15.6875 3.375 C-10.84734831 -0.52601778 -5.91358399 -0.07216577 0 0 Z " fill="#E9D1BF" transform="translate(255.6875,311.625)"/>
<path d="M0 0 C0.33 0.66 0.66 1.32 1 2 C-2.14833822 8.82986275 -6.87347998 14.5701356 -12 20 C-12.66 19.67 -13.32 19.34 -14 19 C-13.505 17.515 -13.505 17.515 -13 16 C-12.34 15.67 -11.68 15.34 -11 15 C-10.731875 13.88625 -10.46375 12.7725 -10.1875 11.625 C-8.79288333 7.36774911 -7.77959676 7.03516748 -4 5 C-3.3574765 2.93125966 -3.3574765 2.93125966 -3 1 C-2.01 0.67 -1.02 0.34 0 0 Z " fill="#C39A8C" transform="translate(378,256)"/>
<path d="M0 0 C4.73178954 5.80719626 5.34180217 10.80142281 5.3125 18.0625 C5.32861328 18.86494141 5.34472656 19.66738281 5.36132812 20.49414062 C5.36621545 26.38336473 5.36621545 26.38336473 3.48046875 29.55859375 C2.99191406 30.03425781 2.50335938 30.50992188 2 31 C0.875 26.25 0.875 26.25 2 24 C2.31031855 16.96307048 2.32051196 9.9326878 1 3 C0.34 3 -0.32 3 -1 3 C-0.67 2.01 -0.34 1.02 0 0 Z " fill="#B9928C" transform="translate(377,221)"/>
<path d="M0 0 C0.83595703 0.01353516 1.67191406 0.02707031 2.53320312 0.04101562 C4.58491498 0.07618783 6.63629275 0.12998952 8.6875 0.1875 C8.6875 0.5175 8.6875 0.8475 8.6875 1.1875 C7.74648437 1.22488281 6.80546875 1.26226562 5.8359375 1.30078125 C3.96808594 1.39939453 3.96808594 1.39939453 2.0625 1.5 C0.21785156 1.58701172 0.21785156 1.58701172 -1.6640625 1.67578125 C-5.47776835 2.21068004 -7.98306396 3.30437874 -11.3125 5.1875 C-12.055 5.496875 -12.7975 5.80625 -13.5625 6.125 C-15.76909048 7.46471565 -16.36831482 8.82703705 -17.3125 11.1875 C-17.9725 11.1875 -18.6325 11.1875 -19.3125 11.1875 C-19.3125 12.5075 -19.3125 13.8275 -19.3125 15.1875 C-19.9725 15.1875 -20.6325 15.1875 -21.3125 15.1875 C-21.6425 16.1775 -21.9725 17.1675 -22.3125 18.1875 C-22.15027555 11.86074656 -18.55489713 7.57186711 -14.3125 3.1875 C-9.79618049 -0.50096421 -5.55504416 -0.17099189 0 0 Z " fill="#C0A095" transform="translate(140.3125,212.8125)"/>
<path d="M0 0 C0.66 0 1.32 0 2 0 C2.10396237 12.37632072 2.19684056 24.66826776 1 37 C0.67 37 0.34 37 0 37 C-0.16723554 31.89154206 -0.32783286 26.78293596 -0.48217773 21.67407227 C-0.53567262 19.93475677 -0.59100755 18.19549688 -0.64819336 16.45629883 C-0.72989627 13.96187334 -0.80506164 11.46732517 -0.87890625 8.97265625 C-0.90594131 8.19036148 -0.93297638 7.40806671 -0.96083069 6.60206604 C-1.01288386 4.73539067 -1.01187025 2.86736326 -1 1 C-0.67 0.67 -0.34 0.34 0 0 Z " fill="#CAA69A" transform="translate(333,283)"/>
<path d="M0 0 C0 0.33 0 0.66 0 1 C-6.61617322 3.298758 -13.23316975 3.65495663 -20.1875 4.125 C-21.36248047 4.21136719 -22.53746094 4.29773438 -23.74804688 4.38671875 C-28.17967731 4.70561392 -32.55532486 5 -37 5 C-36.67 3.68 -36.34 2.36 -36 1 C-36 1.66 -36 2.32 -36 3 C-34.79053711 2.86368164 -34.79053711 2.86368164 -33.55664062 2.72460938 C-29.87158602 2.31186633 -26.18581672 1.90587863 -22.5 1.5 C-20.59734375 1.28537109 -20.59734375 1.28537109 -18.65625 1.06640625 C-12.40044504 0.38217758 -6.29374663 -0.19071959 0 0 Z " fill="#A16B51" transform="translate(316,239)"/>
<path d="M0 0 C0.33 0 0.66 0 1 0 C1.34128465 4.08270842 1.67152387 8.1662427 2 12.25 C2.14308594 13.95929688 2.14308594 13.95929688 2.2890625 15.703125 C2.88173949 23.15392141 3.12268329 30.52654296 3 38 C2.67 38 2.34 38 2 38 C1.95101563 37.28714844 1.90203125 36.57429688 1.8515625 35.83984375 C1.51704532 31.55456334 1.1903018 27.62687651 -0.0625 23.5 C-2.11687736 15.83032452 -1.02047922 7.78115403 0 0 Z " fill="#D4B2A2" transform="translate(313,424)"/>
<path d="M0 0 C0.66 0.33 1.32 0.66 2 1 C2 1.66 2 2.32 2 3 C-3.35714286 8 -3.35714286 8 -7 8 C-8.01111093 11.04913228 -8.01111093 11.04913228 -7 14 C-7.99 14 -8.98 14 -10 14 C-10.33 14.99 -10.66 15.98 -11 17 C-11.99 17 -12.98 17 -14 17 C-11.99048808 9.85506874 -5.83726478 4.24528348 0 0 Z " fill="#92674E" transform="translate(156,81)"/>
<path d="M0 0 C0.33 0 0.66 0 1 0 C1.3627204 7.37531486 1.3627204 7.37531486 -0.125 9.9375 C-4.70028529 12.53016166 -10.26553312 12.11070252 -15.375 12.0625 C-17.24285156 12.04896484 -17.24285156 12.04896484 -19.1484375 12.03515625 C-20.55996094 12.01775391 -20.55996094 12.01775391 -22 12 C-18.05677844 9.56198667 -13.74486471 9.10550869 -9.25 8.375 C-8.45722656 8.2409375 -7.66445313 8.106875 -6.84765625 7.96875 C-4.89939142 7.64012702 -2.94981561 7.31929295 -1 7 C-0.67 4.69 -0.34 2.38 0 0 Z " fill="#9B6E4E" transform="translate(268,315)"/>
<path d="M0 0 C0.33 0 0.66 0 1 0 C2.46036376 10.27533058 1.2684018 19.01646893 -1 29 C-3.10275161 25.60014874 -3.12715391 23.3054 -2.6875 19.375 C-2.58824219 18.41335938 -2.48898437 17.45171875 -2.38671875 16.4609375 C-2 14 -2 14 -1 12 C-0.77141886 9.9625237 -0.58975722 7.91959697 -0.4375 5.875 C-0.35371094 4.77929688 -0.26992188 3.68359375 -0.18359375 2.5546875 C-0.12300781 1.71164062 -0.06242187 0.86859375 0 0 Z " fill="#D7B5A7" transform="translate(330,327)"/>
<path d="M0 0 C3.51623919 3.51623919 3.34835112 7.72106951 3.6875 12.4375 C3.74744141 13.10587891 3.80738281 13.77425781 3.86914062 14.46289062 C4.14087704 18.21880902 4.12327178 20.81915991 2 24 C0.56205146 15.92437827 -0.29599372 8.2056037 0 0 Z " fill="#D7B1A1" transform="translate(165,314)"/>
<path d="M0 0 C5.02111242 4.73419171 10.34550692 9.80057615 11 17 C6.56228834 13.6470623 4.30041438 11.17593235 2 6 C1.34 5.34 0.68 4.68 0 4 C0 2.68 0 1.36 0 0 Z " fill="#766B82" transform="translate(133,426)"/>
<path d="M0 0 C0.99 0 1.98 0 3 0 C3.20086443 3.71599191 3.1519437 4.77208445 1 8 C1.31506627 11.14221967 1.31506627 11.14221967 2 14 C1.01 14.33 0.02 14.66 -1 15 C-1 17.31 -1 19.62 -1 22 C-1.33 22 -1.66 22 -2 22 C-2.26442904 14.40501039 -1.60881575 7.42640842 0 0 Z " fill="#763D3D" transform="translate(187,411)"/>
<path d="M0 0 C0.66 0.33 1.32 0.66 2 1 C1.01 3.97 0.02 6.94 -1 10 C-0.195625 9.67 0.60875 9.34 1.4375 9 C5.73804795 7.79282865 9.56966181 7.82278647 14 8 C10.51783717 10.05137315 7.22724343 10.56818592 3.25 11.125 C2.07953125 11.29257812 0.9090625 11.46015625 -0.296875 11.6328125 C-1.18890625 11.75398438 -2.0809375 11.87515625 -3 12 C-3.36923077 4.61538462 -3.36923077 4.61538462 -1.5 1.5 C-1.005 1.005 -0.51 0.51 0 0 Z " fill="#DDC1AC" transform="translate(236,317)"/>
<path d="M0 0 C1.04318738 3.23680571 0.92287835 5.45548417 0.22265625 8.765625 C0.03896484 9.65507813 -0.14472656 10.54453125 -0.33398438 11.4609375 C-0.53314453 12.38132812 -0.73230469 13.30171875 -0.9375 14.25 C-1.13279297 15.18585938 -1.32808594 16.12171875 -1.52929688 17.0859375 C-2.01176705 19.39238027 -2.50224577 21.696816 -3 24 C-5.18749646 20.09846377 -4.97443873 17.927165 -4.1875 13.5 C-3.99542969 12.3759375 -3.80335938 11.251875 -3.60546875 10.09375 C-3.13731538 7.70163727 -2.62878508 5.35361755 -2 3 C-1.34 3 -0.68 3 0 3 C0 2.01 0 1.02 0 0 Z " fill="#90674B" transform="translate(363,64)"/>
<path d="M0 0 C-2.2668555 1.81767674 -4.53815973 3.62923143 -6.8125 5.4375 C-7.77639648 6.2119043 -7.77639648 6.2119043 -8.75976562 7.00195312 C-9.38173828 7.49501953 -10.00371094 7.98808594 -10.64453125 8.49609375 C-11.21534424 8.95169678 -11.78615723 9.4072998 -12.37426758 9.87670898 C-14 11 -14 11 -17 12 C-17 11.01 -17 10.02 -17 9 C-16.01 9 -15.02 9 -14 9 C-13.67 8.01 -13.34 7.02 -13 6 C-10.41927097 3.67734388 -9.54823932 3 -6 3 C-6 2.01 -6 1.02 -6 0 C-3.50907189 -1.24546405 -2.58919267 -0.7767578 0 0 Z " fill="#CEA08D" transform="translate(303,476)"/>
<path d="M0 0 C1.05224714 0.81993283 2.09771807 1.64899722 3.125 2.5 C2.465 3.16 1.805 3.82 1.125 4.5 C0.60421875 4.02949219 0.0834375 3.55898437 -0.453125 3.07421875 C-3.51292127 1.08535118 -6.02027109 0.78111476 -9.625 0.3125 C-10.79546875 0.15394531 -11.9659375 -0.00460938 -13.171875 -0.16796875 C-14.06390625 -0.27753906 -14.9559375 -0.38710937 -15.875 -0.5 C-15.875 -0.83 -15.875 -1.16 -15.875 -1.5 C-5.01114413 -3.56930588 -5.01114413 -3.56930588 0 0 Z " fill="#C49E97" transform="translate(370.875,214.5)"/>
<path d="M0 0 C1.20153575 3.97365037 0.637386 6.15214289 -1 10 C-2.5625 11.875 -2.5625 11.875 -4 13 C-4.33 13 -4.66 13 -5 13 C-5.64165788 7.73840541 -4.20577001 5.31407151 -1.09375 1.3203125 C-0.55234375 0.66675781 -0.55234375 0.66675781 0 0 Z " fill="#6A5C75" transform="translate(359,433)"/>
<path d="M0 0 C0.66 0 1.32 0 2 0 C0.94017391 2.12946539 -0.12992848 4.25236109 -1.21875 6.3671875 C-3.50340515 10.83898204 -5.59779919 15.15603358 -7 20 C-7.33 20 -7.66 20 -8 20 C-8.12334886 11.71800488 -5.62800992 6.10892532 0 0 Z " fill="#694B61" transform="translate(412,460)"/>
<path d="M0 0 C0.66 0.33 1.32 0.66 2 1 C-1.58501338 5.72569946 -6.43270083 6.81826197 -12 8 C-15.625 8.1875 -15.625 8.1875 -18 8 C-14.24546929 6.0532063 -10.37359823 4.53603833 -6.4375 3 C-4.00211586 2.05204034 -4.00211586 2.05204034 -1.8125 0.8125 C-1.214375 0.544375 -0.61625 0.27625 0 0 Z " fill="#9E765E" transform="translate(213,68)"/>
<path d="M0 0 C3.96 1.98 3.96 1.98 8 4 C7.67 5.65 7.34 7.3 7 9 C6.01 9 5.02 9 4 9 C0 2.25 0 2.25 0 0 Z " fill="#D6D0D3" transform="translate(143,439)"/>
<path d="M0 0 C0.33 0.66 0.66 1.32 1 2 C0.21625 2.9075 -0.5675 3.815 -1.375 4.75 C-2.93674027 6.6056633 -4.05701829 8.11720427 -5.125 10.3125 C-6 12 -6 12 -9 13 C-9.33 13.66 -9.66 14.32 -10 15 C-10.66 14.67 -11.32 14.34 -12 14 C-10.5645497 12.22750476 -9.12656197 10.45706424 -7.6875 8.6875 C-6.88699219 7.70136719 -6.08648437 6.71523438 -5.26171875 5.69921875 C-3.57311644 3.68397834 -1.90369301 1.80511991 0 0 Z " fill="#8A8194" transform="translate(372,418)"/>
<path d="M0 0 C0.33 0 0.66 0 1 0 C1.04898438 0.7734375 1.09796875 1.546875 1.1484375 2.34375 C1.66105262 9.52847745 1.66105262 9.52847745 3.125 16.5625 C4 20 4 20 3 23 C3 22.34 3 21.68 3 21 C2.34 21 1.68 21 1 21 C0.21311555 18.22276075 -0.11949924 15.77389923 -0.09765625 12.890625 C-0.09443359 12.13652344 -0.09121094 11.38242188 -0.08789062 10.60546875 C-0.07951172 9.82816406 -0.07113281 9.05085937 -0.0625 8.25 C-0.05798828 7.45722656 -0.05347656 6.66445312 -0.04882812 5.84765625 C-0.03708565 3.89840492 -0.01915146 1.94919262 0 0 Z " fill="#C29E95" transform="translate(117,231)"/>
<path d="M0 0 C0.99 0 1.98 0 3 0 C1.75971762 6.17222879 0.10396411 12.06682122 -2 18 C-2.33 18 -2.66 18 -3 18 C-3 15.69 -3 13.38 -3 11 C-2.34 11 -1.68 11 -1 11 C-1.01160156 10.28972656 -1.02320313 9.57945313 -1.03515625 8.84765625 C-1.04417969 7.92855469 -1.05320312 7.00945312 -1.0625 6.0625 C-1.07410156 5.14597656 -1.08570313 4.22945313 -1.09765625 3.28515625 C-1 1 -1 1 0 0 Z " fill="#B69379" transform="translate(353,110)"/>
<path d="M0 0 C1.32 0.66 2.64 1.32 4 2 C3.01 2 2.02 2 1 2 C1 2.66 1 3.32 1 4 C-1 5.625 -1 5.625 -3 7 C-3 6.34 -3 5.68 -3 5 C-4.98 6.32 -6.96 7.64 -9 9 C-9.66 8.67 -10.32 8.34 -11 8 C-7.37 5.36 -3.74 2.72 0 0 Z " fill="#9B8FA2" transform="translate(397,397)"/>
<path d="M0 0 C4.62156482 -0.53918256 7.58793618 -0.61735698 11.5 2 C12.325 2.66 13.15 3.32 14 4 C13.01 4.33 12.02 4.66 11 5 C11 4.34 11 3.68 11 3 C6.71 3 2.42 3 -2 3 C-1.34 2.01 -0.68 1.02 0 0 Z " fill="#B08480" transform="translate(420,455)"/>
<path d="M0 0 C0.97904297 0.01353516 1.95808594 0.02707031 2.96679688 0.04101562 C5.37426625 0.07624688 7.78059564 0.12550735 10.1875 0.1875 C10.1875 0.5175 10.1875 0.8475 10.1875 1.1875 C9.34771606 1.217229 9.34771606 1.217229 8.4909668 1.24755859 C5.95184146 1.34287783 3.41353112 1.45252753 0.875 1.5625 C-0.44661133 1.60890625 -0.44661133 1.60890625 -1.79492188 1.65625 C-2.64248047 1.69492187 -3.49003906 1.73359375 -4.36328125 1.7734375 C-5.53370972 1.82056885 -5.53370972 1.82056885 -6.7277832 1.86865234 C-9.11405768 2.08337889 -9.11405768 2.08337889 -11.8125 4.1875 C-14 3.8125 -14 3.8125 -15.8125 3.1875 C-10.94954389 -0.77992243 -5.94545409 -0.15572378 0 0 Z " fill="#D4B39D" transform="translate(255.8125,311.8125)"/>
<path d="M0 0 C-0.33 1.32 -0.66 2.64 -1 4 C-2.45635371 4.22174933 -3.91522956 4.42698698 -5.375 4.625 C-6.18710938 4.74101563 -6.99921875 4.85703125 -7.8359375 4.9765625 C-8.55007812 4.98429687 -9.26421875 4.99203125 -10 5 C-10.66 4.34 -11.32 3.68 -12 3 C-10.75336669 2.49166409 -9.50250613 1.99368855 -8.25 1.5 C-7.55390625 1.2215625 -6.8578125 0.943125 -6.140625 0.65625 C-4 0 -4 0 0 0 Z " fill="#9B6A4C" transform="translate(227,64)"/>
<path d="M0 0 C0.66 0 1.32 0 2 0 C0.5360077 3.06875309 -1.14009636 5.90434743 -3 8.75 C-3.515625 9.54921875 -4.03125 10.3484375 -4.5625 11.171875 C-5.2740625 12.07679688 -5.2740625 12.07679688 -6 13 C-6.66 13 -7.32 13 -8 13 C-6.44759763 8.03231242 -3.48945219 3.82132943 0 0 Z " fill="#BA8A85" transform="translate(416,458)"/>
<path d="M0 0 C0.66 0.33 1.32 0.66 2 1 C-0.04327733 4.064916 -1.66355813 5.4932198 -5 7 C-5.66 7.66 -6.32 8.32 -7 9 C-8.98821313 9.39764263 -10.98944339 9.73775349 -13 10 C-10.22941499 7.02418647 -7.51464884 5.02092308 -4 3 C-2.65368175 2.01755155 -1.31558703 1.02323436 0 0 Z " fill="#C08372" transform="translate(257,458)"/>
<path d="M0 0 C-1.45271122 3.75283733 -1.45271122 3.75283733 -3.9375 4.875 C-6 5 -6 5 -9 3 C-8.67 2.01 -8.34 1.02 -8 0 C-5.13822943 -1.43088528 -3.06624227 -0.59991697 0 0 Z " fill="#73627F" transform="translate(408,395)"/>
<path d="M0 0 C0.33 0.66 0.66 1.32 1 2 C0.01 1.9175 -0.98 1.835 -2 1.75 C-6.08086592 1.70844332 -8.83143196 3.19830117 -12.30078125 5.22265625 C-12.86152344 5.47917969 -13.42226562 5.73570312 -14 6 C-14.66 5.67 -15.32 5.34 -16 5 C-10.52261856 -0.02578882 -7.36339327 -2.06691741 0 0 Z " fill="#A76946" transform="translate(269,291)"/>
<path d="M0 0 C1.09570312 0.10183594 2.19140625 0.20367187 3.3203125 0.30859375 C4.16335938 0.39238281 5.00640625 0.47617187 5.875 0.5625 C5.875 1.2225 5.875 1.8825 5.875 2.5625 C1.255 2.5625 -3.365 2.5625 -8.125 2.5625 C-8.125 1.9025 -8.125 1.2425 -8.125 0.5625 C-5.28943413 -0.85528293 -3.1341294 -0.30007622 0 0 Z " fill="#C7A598" transform="translate(345.125,281.4375)"/>
<path d="M0 0 C1.98 0 3.96 0 6 0 C2.4912812 3.09592835 -0.49197399 4.74194623 -5 6 C-5.66 5.34 -6.32 4.68 -7 4 C-6.030625 3.71125 -5.06125 3.4225 -4.0625 3.125 C-0.89335797 2.35785318 -0.89335797 2.35785318 0 0 Z " fill="#C69D94" transform="translate(359,276)"/>
<path d="M0 0 C0.66 0 1.32 0 2 0 C2 4.62 2 9.24 2 14 C1.34 13.67 0.68 13.34 0 13 C0 12.01 0 11.02 0 10 C-0.66 9.67 -1.32 9.34 -2 9 C-1.67 8.01 -1.34 7.02 -1 6 C-0.64763503 4.00326516 -0.31165441 2.00349261 0 0 Z " fill="#927058" transform="translate(348,138)"/>
<path d="M0 0 C5.42128603 0.36141907 5.42128603 0.36141907 7.8125 3 C9.38095889 6.96242245 9.73278125 10.77057227 10 15 C8.9896632 13.00167898 8.0008115 11.00177644 7.0703125 8.96484375 C5.24910783 5.05903705 3.88111446 2.21777969 0 0 Z " fill="#6B4A5E" transform="translate(428,455)"/>
<path d="M0 0 C5.53657294 -0.42589023 9.89665983 1.094753 15 3 C12 5 12 5 9.80859375 4.7578125 C8.63490234 4.44457031 8.63490234 4.44457031 7.4375 4.125 C4.25604704 3.27171596 4.25604704 3.27171596 1 3 C0.67 2.01 0.34 1.02 0 0 Z " fill="#7F402A" transform="translate(232,444)"/>
<path d="M0 0 C2.35119399 3.52679099 2.21443452 5.02879485 2.125 9.1875 C2.10695312 10.27417969 2.08890625 11.36085938 2.0703125 12.48046875 C2.03550781 13.72763672 2.03550781 13.72763672 2 15 C1.01 14.67 0.02 14.34 -1 14 C-0.67 9.38 -0.34 4.76 0 0 Z " fill="#6E413E" transform="translate(184,446)"/>
<path d="M0 0 C-4.9066816 3.27112106 -10.22631808 3.14082151 -16 3 C-13.2403139 1.16020927 -11.70258118 0.51676779 -8.5625 -0.1875 C-7.41974609 -0.45626953 -7.41974609 -0.45626953 -6.25390625 -0.73046875 C-3.87041504 -1.0154963 -2.26895796 -0.72875415 0 0 Z " fill="#75687F" transform="translate(438,384)"/>
<path d="M0 0 C0.33 0 0.66 0 1 0 C1.054348 2.0622048 1.09294961 4.12482816 1.125 6.1875 C1.14820313 7.33605469 1.17140625 8.48460937 1.1953125 9.66796875 C1.00484152 12.91740372 0.39360127 15.08660521 -1 18 C-2.62283808 14.75432383 -1.54725234 11.36160376 -1.0625 7.875 C-0.91264648 6.74384766 -0.91264648 6.74384766 -0.75976562 5.58984375 C-0.51201596 3.72582247 -0.25671943 1.86280712 0 0 Z " fill="#6C442C" transform="translate(348,199)"/>
<path d="M0 0 C0.66 0.33 1.32 0.66 2 1 C-2.625 6.75 -2.625 6.75 -6 9 C-7.32 8.67 -8.64 8.34 -10 8 C-6.7 5.36 -3.4 2.72 0 0 Z " fill="#EED9C9" transform="translate(296,480)"/>
<path d="M0 0 C1.625 1.6875 1.625 1.6875 3 4 C2.3125 6.6875 2.3125 6.6875 1 9 C0.01 9.495 0.01 9.495 -1 10 C-1.33 8.02 -1.66 6.04 -2 4 C-1.34 4 -0.68 4 0 4 C0 2.68 0 1.36 0 0 Z " fill="#763B32" transform="translate(191,382)"/>
<path d="M0 0 C-1.49097658 3.7952131 -3.75700849 5.61042731 -7 8 C-7.33 6.68 -7.66 5.36 -8 4 C-2.25 0 -2.25 0 0 0 Z " fill="#CFA493" transform="translate(324,360)"/>
<path d="M0 0 C0.66 0.33 1.32 0.66 2 1 C1.67 3.31 1.34 5.62 1 8 C0.34 8 -0.32 8 -1 8 C-1.33 8.99 -1.66 9.98 -2 11 C-2 8.03 -2 5.06 -2 2 C-1.34 2 -0.68 2 0 2 C0 1.34 0 0.68 0 0 Z " fill="#986F67" transform="translate(190,378)"/>
<path d="M0 0 C0.66 0 1.32 0 2 0 C1.67 6.93 1.34 13.86 1 21 C0.67 21 0.34 21 0 21 C-0.19592461 17.68794116 -0.38032746 14.37534146 -0.5625 11.0625 C-0.61857422 10.11697266 -0.67464844 9.17144531 -0.73242188 8.19726562 C-0.78076172 7.29814453 -0.82910156 6.39902344 -0.87890625 5.47265625 C-0.9260376 4.64000244 -0.97316895 3.80734863 -1.02172852 2.94946289 C-1 1 -1 1 0 0 Z " fill="#CFA191" transform="translate(333,283)"/>
<path d="M0 0 C2.32240046 2.85021875 3.93906527 5.46355091 5 9 C4.625 11.3125 4.625 11.3125 4 13 C1.70366176 9.55549263 1.45983515 7.06187717 1 3 C0.34 3 -0.32 3 -1 3 C-0.67 2.01 -0.34 1.02 0 0 Z " fill="#CAAEA5" transform="translate(377,221)"/>
<path d="M0 0 C0 4.38968456 -2.12805101 5.76905739 -5 9 C-6.32 8.67 -7.64 8.34 -9 8 C-6.03 5.36 -3.06 2.72 0 0 Z " fill="#73687C" transform="translate(382,409)"/>
<path d="M0 0 C0.98120464 3.05263664 0.98120464 4.94736336 0 8 C2.31 8 4.62 8 7 8 C7 8.33 7 8.66 7 9 C4.03 9 1.06 9 -2 9 C-2.25 3.375 -2.25 3.375 0 0 Z " fill="#B27351" transform="translate(171,180)"/>
<path d="M0 0 C0.66 0.33 1.32 0.66 2 1 C-1.11016455 4.28788824 -4.01618925 6.83735988 -8 9 C-6.90101298 5.70303895 -6.05402613 4.95329411 -3.4375 2.8125 C-2.79683594 2.28269531 -2.15617187 1.75289062 -1.49609375 1.20703125 C-0.75552734 0.60955078 -0.75552734 0.60955078 0 0 Z " fill="#774429" transform="translate(288,223)"/>
<path d="M0 0 C1.98 0.99 1.98 0.99 4 2 C4.75 5.625 4.75 5.625 5 9 C4.01 9.495 4.01 9.495 3 10 C2.01 6.7 1.02 3.4 0 0 Z " fill="#8B6449" transform="translate(144,146)"/>
<path d="M0 0 C-0.33 2.31 -0.66 4.62 -1 7 C-1.66 6.01 -2.32 5.02 -3 4 C-4.65 4.33 -6.3 4.66 -8 5 C-3.375 0 -3.375 0 0 0 Z " fill="#B39B82" transform="translate(366,57)"/>
<path d="M0 0 C1.875 0.5625 1.875 0.5625 4 2 C5.25 5.625 5.25 5.625 6 9 C1.3125 5.484375 1.3125 5.484375 0 4 C0 2.68 0 1.36 0 0 Z " fill="#6C5E77" transform="translate(138,434)"/>
<path d="M0 0 C1.4606285 2.64738916 2 3.89448334 2 7 C1.34 7 0.68 7 0 7 C0 9.31 0 11.62 0 14 C-0.33 14 -0.66 14 -1 14 C-1.02705729 12.22925083 -1.04642195 10.45838289 -1.0625 8.6875 C-1.07410156 7.70136719 -1.08570313 6.71523438 -1.09765625 5.69921875 C-1 3 -1 3 0 0 Z " fill="#6A413E" transform="translate(186,419)"/>
<path d="M0 0 C3.77545388 1.09068668 6.47043472 1.9083091 9 5 C7.081875 4.8453125 7.081875 4.8453125 5.125 4.6875 C4.04605469 4.60048828 4.04605469 4.60048828 2.9453125 4.51171875 C1 4 1 4 -1 1 C-0.67 0.67 -0.34 0.34 0 0 Z " fill="#968E9F" transform="translate(91,392)"/>
<path d="M0 0 C1.40070613 4.20211839 0.76587588 7.33309368 -1.0625 11.3125 C-1.5265625 12.1478125 -1.5265625 12.1478125 -2 13 C-2.66 12.67 -3.32 12.34 -4 12 C-2.66666667 8 -1.33333333 4 0 0 Z " fill="#995938" transform="translate(194,366)"/>
<path d="M0 0 C0.99 0.33 1.98 0.66 3 1 C3.33 1.99 3.66 2.98 4 4 C4.66 4.33 5.32 4.66 6 5 C6.625 7.0625 6.625 7.0625 7 9 C6.01 9.495 6.01 9.495 5 10 C4.16121545 8.71186658 3.32913217 7.41936744 2.5 6.125 C2.0359375 5.40570313 1.571875 4.68640625 1.09375 3.9453125 C0 2 0 2 0 0 Z " fill="#CBAA9B" transform="translate(174,357)"/>
<path d="M0 0 C0.66 0 1.32 0 2 0 C3.3271261 3.9813783 3.06915913 7.85045227 3 12 C0.60926555 8.17482487 0.44033448 4.40334476 0 0 Z " fill="#D5B3A8" transform="translate(168,338)"/>
<path d="M0 0 C0.8971875 0.309375 0.8971875 0.309375 1.8125 0.625 C-1.74389236 2.92619506 -5.13468288 4.39972971 -9.1875 5.625 C-3.21691176 -0.55147059 -3.21691176 -0.55147059 0 0 Z " fill="#A56642" transform="translate(217.1875,298.375)"/>
<path d="M0 0 C0.33 0.66 0.66 1.32 1 2 C0.22265625 3.7265625 0.22265625 3.7265625 -0.9375 5.625 C-1.618125 6.73875 -2.29875 7.8525 -3 9 C-3.96516243 5.99727245 -4.22393475 3.95784231 -3 1 C-2.01 0.67 -1.02 0.34 0 0 Z " fill="#D3B6AC" transform="translate(378,256)"/>
<path d="M0 0 C1.32 0.33 2.64 0.66 4 1 C4.33 3.31 4.66 5.62 5 8 C4.34 8 3.68 8 3 8 C0.95830515 5.09451118 0 3.59857954 0 0 Z " fill="#BF9A8E" transform="translate(121,257)"/>
<path d="M0 0 C-0.33 0.99 -0.66 1.98 -1 3 C-4.375 3.625 -4.375 3.625 -8 4 C-8.66 3.34 -9.32 2.68 -10 2 C-6.38026598 0.68373308 -3.90432869 0 0 0 Z " fill="#A2856A" transform="translate(170,77)"/>
<path d="M0 0 C-1 3 -1 3 -2.875 4.1875 C-5 5 -5 5 -8 5 C-8.33 4.01 -8.66 3.02 -9 2 C-2.25 0 -2.25 0 0 0 Z " fill="#87502A" transform="translate(206,74)"/>
<path d="M0 0 C0.61875 0.165 1.2375 0.33 1.875 0.5 C6.25470729 1.20075317 10.57428989 1.07734251 15 1 C12.48987037 3.51012963 11.53194763 3.29721609 8.0625 3.3125 C6.74958984 3.33763672 6.74958984 3.33763672 5.41015625 3.36328125 C2.59791488 2.93939398 1.74545521 2.18325915 0 0 Z " fill="#956057" transform="translate(201,479)"/>
<path d="M0 0 C0.33 1.32 0.66 2.64 1 4 C-1.3125 6.0625 -1.3125 6.0625 -4 8 C-4.99 7.67 -5.98 7.34 -7 7 C-6.21625 6.401875 -5.4325 5.80375 -4.625 5.1875 C-1.85425677 3.08914751 -1.85425677 3.08914751 0 0 Z " fill="#C98A6A" transform="translate(287,432)"/>
<path d="M0 0 C2.23551759 3.35327639 2.17283528 3.90743657 1.625 7.6875 C1.51414062 8.49574219 1.40328125 9.30398438 1.2890625 10.13671875 C1.19367188 10.75160156 1.09828125 11.36648438 1 12 C-1.58464442 7.61991557 -0.81479148 4.88874887 0 0 Z " fill="#DCBEB2" transform="translate(328,344)"/>
<path d="M0 0 C0.33 0.66 0.66 1.32 1 2 C-0.1875 5.0625 -0.1875 5.0625 -2 8 C-3.32 8.33 -4.64 8.66 -6 9 C-4.02 6.03 -2.04 3.06 0 0 Z " fill="#7B6F81" transform="translate(329,480)"/>
<path d="M0 0 C0 3 0 3 -2 5.1875 C-2.66 5.785625 -3.32 6.38375 -4 7 C-4.99 6.67 -5.98 6.34 -7 6 C-4.69 4.02 -2.38 2.04 0 0 Z " fill="#EEDACC" transform="translate(305,473)"/>
<path d="M0 0 C0.6875 1.8125 0.6875 1.8125 1 4 C-0.1875 5.8125 -0.1875 5.8125 -2 7 C-4.1875 6.6875 -4.1875 6.6875 -6 6 C-5.195625 5.38125 -4.39125 4.7625 -3.5625 4.125 C-0.96125481 2.25835959 -0.96125481 2.25835959 0 0 Z " fill="#CF8474" transform="translate(328,272)"/>
<path d="M0 0 C0.66 0.66 1.32 1.32 2 2 C4.58354218 2.16687448 4.58354218 2.16687448 7 2 C4.82575883 4.50037734 3.26954202 5.43628586 0 6 C-1.24546405 3.50907189 -0.7767578 2.58919267 0 0 Z " fill="#BA9384" transform="translate(348,212)"/>
<path d="M0 0 C0.97110486 3.02121511 1.13617383 5.00463263 0 8 C-0.99 8.495 -0.99 8.495 -2 9 C-2 6.36 -2 3.72 -2 1 C-1.34 0.67 -0.68 0.34 0 0 Z " fill="#79431D" transform="translate(142,122)"/>
<path d="M0 0 C0.66 0 1.32 0 2 0 C0.8141763 3.37503669 -0.27573689 5.64722731 -3 8 C-3.66 7.67 -4.32 7.34 -5 7 C-4.34 6.01 -3.68 5.02 -3 4 C-2.34 4 -1.68 4 -1 4 C-0.67 2.68 -0.34 1.36 0 0 Z " fill="#E8D9CC" transform="translate(316,460)"/>
<path d="M0 0 C0.309375 0.639375 0.61875 1.27875 0.9375 1.9375 C1.8345163 3.93610821 1.8345163 3.93610821 3 5 C3.04063832 6.66617115 3.042721 8.33388095 3 10 C2.01 9.34 1.02 8.68 0 8 C-0.40843923 5.28796348 -0.13336867 2.7562858 0 0 Z " fill="#BC9B9A" transform="translate(182,456)"/>
<path d="M0 0 C0.99 0.33 1.98 0.66 3 1 C3.33 1.99 3.66 2.98 4 4 C3.34 4.66 2.68 5.32 2 6 C0.68 4.35 -0.64 2.7 -2 1 C-1.34 0.67 -0.68 0.34 0 0 Z " fill="#DAB8AC" transform="translate(185,370)"/>
<path d="M0 0 C1.31571603 0.2547514 2.62760376 0.52934141 3.9375 0.8125 C4.66839844 0.96332031 5.39929688 1.11414063 6.15234375 1.26953125 C6.76207031 1.51058594 7.37179688 1.75164062 8 2 C8.33 2.99 8.66 3.98 9 5 C5.22454612 3.90931332 2.52956528 3.0916909 0 0 Z " fill="#C8A99F" transform="translate(136,277)"/>
<path d="M0 0 C0.75 1.75 0.75 1.75 1 4 C-0.9375 6.25 -0.9375 6.25 -3 8 C-3.36923077 3.44615385 -3.36923077 3.44615385 -1.5 1.1875 C-1.005 0.795625 -0.51 0.40375 0 0 Z " fill="#E5DEDF" transform="translate(335,468)"/>
<path d="M0 0 C0.99 0.66 1.98 1.32 3 2 C2.01 2 1.02 2 0 2 C-0.33 2.99 -0.66 3.98 -1 5 C-1.99 5 -2.98 5 -4 5 C-3.6875 3.0625 -3.6875 3.0625 -3 1 C-2.01 0.67 -1.02 0.34 0 0 Z " fill="#885D42" transform="translate(146,93)"/>
</svg>
